<?xml version="1.0" standalone="no"?>
<!DOCTYPE svg PUBLIC "-//W3C//DTD SVG 20010904//EN"
 "http://www.w3.org/TR/2001/REC-SVG-20010904/DTD/svg10.dtd">
<svg version="1.0" xmlns="http://www.w3.org/2000/svg"
 width="16.000000pt" height="16.000000pt" viewBox="0 0 16.000000 16.000000"
 preserveAspectRatio="xMidYMid meet">
<metadata>
Created by potrace 1.11, written by Peter Selinger 2001-2013
</metadata>
<g transform="translate(0.000000,16.000000) scale(0.007111,-0.007111)"
fill="#000000" stroke="none">
<path d="M0 1190 l0 -1060 88 0 c115 0 301 23 487 61 187 38 287 41 368 10 64
-25 145 -98 167 -150 l13 -32 25 38 c64 97 133 144 243 164 57 10 79 9 209
-16 247 -46 292 -53 392 -64 54 -6 133 -11 178 -11 l80 0 0 1060 0 1060 -1125
0 -1125 0 0 -1060z m865 515 c73 -19 155 -74 202 -134 39 -52 29 -65 -22 -26
-180 137 -402 94 -489 -94 -17 -38 -21 -65 -21 -151 0 -98 2 -110 33 -174 41
-86 105 -178 179 -253 l57 -58 13 85 c7 47 10 100 6 118 -10 59 -70 105 -215
165 -44 18 -50 44 -13 53 19 5 40 -4 88 -34 111 -72 183 -90 271 -67 78 21 90
5 38 -48 l-37 -38 1 -210 c1 -115 -1 -209 -3 -209 -3 0 -37 21 -76 46 -275
177 -465 476 -444 699 16 169 129 305 279 334 65 13 88 12 153 -4z m747 -22
c114 -51 194 -171 205 -309 15 -173 -100 -405 -286 -575 -66 -61 -240 -183
-249 -174 -2 2 1 69 7 149 13 163 7 207 -34 246 -14 13 -25 34 -25 47 0 23 1
23 36 8 75 -31 164 -11 277 62 21 14 31 15 45 7 30 -20 18 -36 -47 -62 -35
-14 -82 -42 -104 -63 l-40 -39 6 -67 c3 -38 10 -79 15 -92 8 -23 11 -21 79 47
81 81 141 164 185 258 39 83 49 201 24 286 -31 109 -116 187 -229 210 -77 16
-165 -6 -250 -62 -32 -22 -63 -40 -68 -40 -16 0 11 40 56 86 110 109 260 139
397 77z m-459 -214 c48 -22 61 -89 26 -133 -17 -22 -28 -26 -60 -24 -34 2 -40
6 -53 38 -18 45 -10 85 22 110 29 23 33 24 65 9z m-341 -54 c147 -100 227
-128 345 -123 98 4 129 16 271 102 72 43 86 48 110 40 17 -6 27 -17 27 -29 0
-16 -19 -27 -90 -56 -49 -19 -108 -47 -130 -61 -55 -34 -110 -97 -126 -144
-18 -51 -16 -250 5 -414 8 -68 12 -128 8 -132 -4 -3 -29 -15 -57 -26 l-50 -19
-62 24 c-54 21 -62 28 -58 46 28 124 44 501 24 554 -23 61 -102 119 -238 174
-46 19 -86 40 -88 46 -18 47 50 58 109 18z m95 -153 c37 -23 31 -105 -9 -115
-28 -8 -43 0 -57 29 -15 33 -14 45 5 72 15 22 39 28 61 14z m467 -78 c9 -8 16
-30 16 -48 0 -64 -66 -84 -90 -27 -24 60 32 117 74 75z"/>
</g>
</svg>
